<svg xmlns="http://www.w3.org/2000/svg" xmlns:xlink="http://www.w3.org/1999/xlink" viewBox="0 0 125.167 125.167" fill="#fff" fill-rule="evenodd" stroke="#000" stroke-linecap="round" stroke-linejoin="round"><use xlink:href="#A" x="2.083" y="2.083"/><symbol id="A" overflow="visible"><g stroke="none" fill-rule="nonzero"><use xlink:href="#C" fill="#f4aa41"/><path d="M91.042 8.333c10 10.833 16.25 25.208 16.25 41.25 0 33.333-27.083 60.417-60.417 60.417-11.25 0-21.667-3.125-30.625-8.333 11.042 11.667 26.875 19.167 44.167 19.167 33.333 0 60.417-27.083 60.417-60.417 0-22.292-11.875-41.667-29.792-52.083z" fill="#e27022"/></g><g fill="none" stroke-width="4.167"><path d="M0 60.417h120.833"/><path d="M60.417 0v120.833m40-15.208c-11.667-11.667-18.75-27.5-18.75-45.417 0-17.708 7.083-33.75 18.75-45.417M20.625 15c11.667 11.667 18.75 27.708 18.75 45.417s-7.083 33.75-18.75 45.417"/><use xlink:href="#C"/></g></symbol><defs ><path id="C" d="M0 60.417C0 26.946 26.946 0 60.417 0s60.417 26.946 60.417 60.417-26.946 60.417-60.417 60.417S0 93.888 0 60.417z"/></defs></svg>