<svg xmlns="http://www.w3.org/2000/svg" xmlns:xlink="http://www.w3.org/1999/xlink" viewBox="0 0 86.06 127.083" fill="#fff" fill-rule="evenodd" stroke="#000" stroke-linecap="round" stroke-linejoin="round"><use xlink:href="#A" x="2.03" y="1.042"/><symbol id="A" overflow="visible"><g stroke="none" fill-rule="nonzero"><path d="M63.701 13.642l6.575 10.802v77.017H53.197l.6-70.871zm-45.371.521l-7.135 10.01v77.017l17.308-.763-.896-69.296z" fill="#d0cfce"/><path d="M24.862 107.002l2.083-83.117C26.445 7.994 40.778 0 40.778 0s14.333 7.996 13.833 23.885c-.521 16.662 2.083 83.119 2.083 83.119H24.82z" fill="#f4aa41"/><path d="M48.164 112.069l33.542-2.608c.385-6.615-6.808-14.496-6.808-14.496C57.71 82.596 54.932 75.339 54.932 75.339L47.814 56.21m-14.379 55.796l-33.412-2.55C-.363 102.841 6.83 94.96 6.83 94.96c17.188-12.369 19.965-19.625 19.965-19.625l7.119-19.129"/><path d="M49.268 124.377c-.021.138-.021.217-.021.217H32.372s0-.079-.021-.238c-.104-1.404-.563-8.708 1.104-12.35-.042-14.01-.125-60.417 1.042-70.848 1.375-12.329 6.292-14.15 6.292-14.15s4.938 1.821 6.333 14.15c1.167 10.45 1.104 56.958 1.042 70.908 1.625 3.66 1.167 10.944 1.083 12.308z"/></g><g fill="none" stroke-width="4.06"><path d="M60.517 23.298l4.729-8.583 5 9.729v67.021m-59.062.25v-67.5l5.042-9.792 4.729 8.583m34.708 53.625l-1.042-52.75C55.122 7.985 40.788.006 40.788.006S26.455 7.985 26.955 23.881c.292 9.125-.375 33.125-1.042 53.021.625-1.042.833-1.562.833-1.562l7-18.792c.146-6.917.375-12.5.708-15.417 1.375-12.292 6.292-14.167 6.292-14.167s4.938 1.833 6.333 14.167c.313 2.833.542 8.333.708 15.063.375 15.708.417 38.333.354 50.792"/><path d="M49.566 111.95l32.156-2.492c.385-6.615-6.808-14.496-6.808-14.496-17.187-12.369-19.965-19.625-19.965-19.625L47.83 56.208m-14.375 50.798l.354-50.417-7 18.75s-.208.542-.833 1.563m7.958-20.687l-.125.333v.021m-7.875 20.354c-1.521 2.417-5.417 7.5-14.75 14.792-1.43 1.119-2.882 2.209-4.354 3.271s-7.187 7.875-6.812 14.5l32.167 2.5"/><path d="M49.268 124.381c-.021.125-.021.208-.021.208H32.372s0-.083-.021-.208c-.104-1.417-.563-8.708 1.104-12.354v-5l.354-50.458.708-15.417c1.375-12.292 6.292-14.167 6.292-14.167s4.938 1.833 6.333 14.167c.313 2.833.542 8.333.708 15.063.375 15.708.417 38.333.354 50.792v5.063c1.625 3.667 1.167 10.938 1.083 12.292z" stroke-miterlimit="10"/></g></symbol></svg>